HIERARCHY
ROOT Hips
{
	OFFSET 0.000000 0.000000 0.000000
	CHANNELS 6 Xposition Yposition Zposition Xrotation Yrotation Zrotation
	JOINT LeftUpLeg_virtual
	{
		OFFSET 0.000000 0.000000 0.000000
		CHANNELS 3 Xrotation Yrotation Zrotation
		JOINT LeftUpLeg
		{
			OFFSET 10.205400 -3.823500 0.155100
			CHANNELS 3 Xrotation Yrotation Zrotation
			JOINT LeftLeg
			{
				OFFSET 0.708757 -12.982077 0.567790
				CHANNELS 3 Xrotation Yrotation Zrotation
				JOINT LeftFoot
				{
					OFFSET -0.708756 -10.717838 -2.184338
					CHANNELS 3 Xrotation Yrotation Zrotation
					JOINT LeftToeBase
					{
						OFFSET 0.108149 -7.191104 7.560241
						CHANNELS 3 Xrotation Yrotation Zrotation
						JOINT LeftToe_End
						{
							OFFSET 0.070230 0.081724 4.490308
							CHANNELS 3 Xrotation Yrotation Zrotation
							End Site
							{
								OFFSET 0 0 0
							}
						}
					}
				}
			}
		}
	}
	JOINT RightUpLeg_virtual
	{
		OFFSET 0.000000 0.000000 0.000000
		CHANNELS 3 Xrotation Yrotation Zrotation
		JOINT RightUpLeg
		{
			OFFSET -10.205400 -3.823500 0.005500
			CHANNELS 3 Xrotation Yrotation Zrotation
			JOINT RightLeg
			{
				OFFSET -0.708756 -12.982134 0.610632
				CHANNELS 3 Xrotation Yrotation Zrotation
				JOINT RightFoot
				{
					OFFSET 0.708754 -10.717769 -1.945823
					CHANNELS 3 Xrotation Yrotation Zrotation
					JOINT RightToeBase
					{
						OFFSET -0.108140 -7.191069 7.372968
						CHANNELS 3 Xrotation Yrotation Zrotation
						JOINT RightToe_End
						{
							OFFSET -0.070227 0.081735 4.479403
							CHANNELS 3 Xrotation Yrotation Zrotation
							End Site
							{
								OFFSET 0 0 0
							}
						}
					}
				}
			}
		}
	}
	JOINT Spine_virtual
	{
		OFFSET 0.000000 0.000000 0.000000
		CHANNELS 3 Xrotation Yrotation Zrotation
		JOINT Spine
		{
			OFFSET 0.000000 6.876099 0.125700
			CHANNELS 3 Xrotation Yrotation Zrotation
			JOINT Spine1
			{
				OFFSET 0.000000 5.730043 0.104720
				CHANNELS 3 Xrotation Yrotation Zrotation
				JOINT Spine1_split
				{
					OFFSET 0.000000 5.730043 0.104720
					CHANNELS 3 Xrotation Yrotation Zrotation
					JOINT Spine2
					{
						OFFSET 0.000000 5.730043 0.104720
						CHANNELS 3 Xrotation Yrotation Zrotation
						JOINT Neck_virtual
						{
							OFFSET 0.000000 0.000000 0.000000
							CHANNELS 3 Xrotation Yrotation Zrotation
							JOINT Neck
							{
								OFFSET 0.000000 10.314075 0.188496
								CHANNELS 3 Xrotation Yrotation Zrotation
								JOINT Head
								{
									OFFSET 0.000000 7.643700 -2.377400
									CHANNELS 3 Xrotation Yrotation Zrotation
									JOINT HeadTop_End
									{
										OFFSET 0.000000 43.788605 -13.619600
										CHANNELS 3 Xrotation Yrotation Zrotation
										End Site
										{
											OFFSET 0 0 0
										}
									}
								}
							}
						}
						JOINT LeftShoulder_virtual
						{
							OFFSET 0.000000 0.000000 0.000000
							CHANNELS 3 Xrotation Yrotation Zrotation
							JOINT LeftShoulder
							{
								OFFSET 2.196100 4.412489 0.087492
								CHANNELS 3 Xrotation Yrotation Zrotation
								JOINT LeftShoulder_split
								{
									OFFSET 2.196100 4.412489 0.087492
									CHANNELS 3 Xrotation Yrotation Zrotation
									JOINT LeftArm
									{
										OFFSET 8.771219 -2.981674 -0.026999
										CHANNELS 3 Xrotation Yrotation Zrotation
										JOINT LeftForeArm
										{
											OFFSET 8.512804 0.000000 -0.000000
											CHANNELS 3 Xrotation Yrotation Zrotation
											JOINT LeftHand
											{
												OFFSET 18.484802 0.000000 -0.000000
												CHANNELS 3 Xrotation Yrotation Zrotation
												End Site
												{
													OFFSET 0 0 0
												}
											}
										}
									}
								}
							}
						}
						JOINT RightShoulder_virtual
						{
							OFFSET 0.000000 0.000000 0.000000
							CHANNELS 3 Xrotation Yrotation Zrotation
							JOINT RightShoulder
							{
								OFFSET -2.196100 4.412496 0.070690
								CHANNELS 3 Xrotation Yrotation Zrotation
								JOINT RightShoulder_split
								{
									OFFSET -2.196100 4.412496 0.070690
									CHANNELS 3 Xrotation Yrotation Zrotation
									JOINT RightArm
									{
										OFFSET -8.771282 -2.981682 -0.094208
										CHANNELS 3 Xrotation Yrotation Zrotation
										JOINT RightForeArm
										{
											OFFSET -8.494598 0.000000 0.000000
											CHANNELS 3 Xrotation Yrotation Zrotation
											JOINT RightHand
											{
												OFFSET -18.483803 0.000000 0.000001
												CHANNELS 3 Xrotation Yrotation Zrotation
												End Site
												{
													OFFSET 0 0 0
												}
											}
										}
									}
								}
							}
						}
					}
				}
			}
		}
	}
}
MOTION
Frames: 9
Frame Time: 0.03333333
1.029675 34.241547 -1.231363 0.000000 0.000000 0.000000 -0.415641 -13.370992 -0.394234 -17.308826 19.513613 18.985612 28.945491 12.541925 -1.046260 -0.565804 0.889126 -7.185879 -3.838700 1.002823 -0.705071 0.000000 0.000000 0.000000 0.302250 -12.455193 -0.886941 1.572448 -2.550622 2.512174 20.436349 4.765350 4.648394 -17.380972 0.234367 -2.835946 2.513698 -1.712457 3.013273 0.000000 0.000000 0.000000 -1.632845 -16.497760 -1.729163 3.234286 -0.844903 -0.087325 0.586031 -0.252057 3.159381 -0.287319 1.956027 -0.217865 0.000000 0.000000 0.000000 0.677295 -1.600318 2.747265 4.336669 -7.080818 -2.336832 5.691779 20.751706 -9.095808 0.000000 0.000000 0.000000 0.091071 -1.278223 2.918190 4.722027 7.020631 2.525847 5.238513 6.866259 -2.886103 -6.230626 -40.625214 -68.136328 -13.039242 -26.258003 -2.751912 0.000000 0.000000 0.000000 0.394266 -0.942243 3.354720 -1.737833 -1.746380 3.046339 -1.485258 3.968473 1.308740 7.361570 8.053568 77.692261 -6.116598 28.236545 5.322407 0.000000 0.000000 0.000000 
1.156899 33.945454 -1.425695 0.000000 0.000000 0.000000 -0.302256 -13.234091 -0.780051 -17.830728 20.165792 19.798237 28.661041 11.970239 -1.615858 -1.878432 0.659646 -6.320786 -2.628948 0.884621 -0.871141 0.000000 0.000000 0.000000 0.446018 -13.034062 -1.128192 0.219269 -2.557744 2.444677 18.275303 5.014680 5.479199 -15.080235 1.192153 -1.603264 -0.775600 -1.768144 2.607723 0.000000 0.000000 0.000000 -1.659319 -17.521039 -2.223344 4.163988 -1.114830 0.018509 0.982676 -0.456560 3.132464 0.518843 1.522994 0.001842 0.000000 0.000000 0.000000 1.240635 -1.612341 2.741592 3.430302 -6.655271 -2.028588 4.633483 20.730633 -9.039866 0.000000 0.000000 0.000000 0.453259 -1.281872 2.841920 4.966207 6.939893 3.101660 5.593855 5.829313 -0.850849 -4.388820 -40.649898 -68.448160 -11.106666 -24.991133 -2.429572 0.000000 0.000000 0.000000 0.796388 -1.008411 3.344228 -1.534645 -1.182885 2.898478 -1.440147 5.893619 0.269333 6.483028 9.007361 76.735304 -4.730775 26.551819 4.295931 0.000000 0.000000 0.000000 
1.250892 33.622757 -1.532001 0.000000 0.000000 0.000000 -0.346068 -14.534453 -1.894824 -20.172221 22.524791 22.801004 29.337353 10.095627 -2.429544 -3.012131 0.262534 -7.924514 -1.964319 0.805497 -1.373286 0.000000 0.000000 0.000000 0.216174 -15.155295 -2.162046 -2.039336 -3.390591 2.233371 16.686647 5.925699 6.869670 -10.925992 3.407556 0.967626 -3.259700 -1.383440 1.086568 0.000000 0.000000 0.000000 -1.812864 -19.574996 -3.185472 5.714195 -1.605833 0.294307 1.600162 -0.781138 2.804315 0.775838 1.448786 -0.104860 0.000000 0.000000 0.000000 1.994993 -1.734979 2.482387 1.958684 -5.834615 -2.024027 2.015987 21.921823 -9.157148 0.000000 0.000000 0.000000 1.218402 -1.373257 2.337645 5.651802 6.324659 4.199134 5.679432 5.654569 1.541972 1.115543 -42.173478 -66.636644 -11.845668 -29.722480 -4.146935 0.000000 0.000000 0.000000 1.722918 -1.157448 2.971107 -1.176541 -0.433267 2.538995 -0.856791 6.403454 -0.795734 4.270475 11.806989 75.358304 -2.808265 25.313957 3.251221 0.000000 0.000000 0.000000 
1.311922 33.395317 -1.576130 0.000000 0.000000 0.000000 -0.480279 -17.396412 -3.375224 -23.899243 26.437514 27.667908 30.411971 7.628251 -3.380528 -3.681093 -0.008192 -10.959370 -3.679630 0.721547 -1.153223 0.000000 0.000000 0.000000 -0.107541 -18.477801 -3.743018 -4.655100 -4.811066 1.791116 16.088224 7.037110 8.254920 -7.056548 6.278990 4.056028 -4.008808 -0.657018 -0.985554 0.000000 0.000000 0.000000 -1.760020 -22.315804 -4.416138 7.447994 -2.227195 0.631184 2.345574 -1.172928 2.277974 0.535778 1.548192 -0.387108 0.000000 0.000000 0.000000 2.919874 -1.961688 2.053226 0.232606 -4.649681 -2.236120 -1.522286 23.927701 -9.234846 0.000000 0.000000 0.000000 2.182750 -1.554572 1.580163 6.673815 5.748097 6.081119 5.532589 5.391835 3.278853 10.558418 -44.234979 -62.651187 -16.341050 -41.252297 -9.050561 0.000000 0.000000 0.000000 2.951601 -1.389820 2.367457 -0.719036 0.293653 2.137940 0.005811 5.266272 -1.724157 1.194109 15.196387 73.853811 -0.913801 26.034728 2.497915 0.000000 0.000000 0.000000 
1.337426 33.237095 -1.451786 0.000000 0.000000 0.000000 -0.666653 -21.404013 -4.890037 -28.205551 31.338892 33.567306 31.900487 5.379271 -4.213283 -4.426064 0.653628 -13.323272 -6.217596 0.542425 -0.412876 0.000000 0.000000 0.000000 -0.463057 -22.520869 -5.478409 -6.736771 -6.459421 1.021432 16.646131 7.566823 8.872695 -5.433417 8.196631 5.994704 -3.710458 0.045846 -2.742598 0.000000 0.000000 0.000000 -1.429169 -25.545353 -5.639160 8.939538 -2.860691 0.902976 3.132720 -1.603555 1.684829 0.179739 1.918769 -0.771920 0.000000 0.000000 0.000000 3.854187 -2.241597 1.585410 -1.207211 -3.268529 -2.369792 -5.097988 26.447759 -9.194258 0.000000 0.000000 0.000000 3.167538 -1.762467 0.794638 7.981332 5.617439 8.570359 4.971096 4.234836 4.264287 23.534942 -45.399298 -57.311721 -29.094058 -57.830645 -22.025731 0.000000 0.000000 0.000000 4.257170 -1.669013 1.697213 -0.144977 0.950943 1.787249 0.810184 3.163734 -2.611804 -1.967668 17.812379 72.294479 0.504009 30.163331 2.164481 0.000000 0.000000 0.000000 
1.340117 33.074306 -1.298193 0.000000 0.000000 0.000000 -0.704281 -26.054358 -5.950250 -32.312686 36.629997 39.033817 33.666344 4.284138 -4.834818 -7.016252 3.038353 -13.164608 -6.174935 0.334206 -0.214754 0.000000 0.000000 0.000000 -0.402241 -26.699085 -6.671547 -7.926893 -8.013461 -0.622239 18.104513 7.090073 8.257935 -6.403917 8.127789 6.164926 -3.150327 0.467574 -3.440530 0.000000 0.000000 0.000000 -0.971811 -29.055375 -6.560798 9.825138 -3.378729 1.029042 3.861137 -2.042271 1.165162 0.464033 2.279495 -0.890805 0.000000 0.000000 0.000000 4.579164 -2.531578 1.172721 -2.221918 -1.976693 -2.241998 -8.058860 28.888712 -8.954604 0.000000 0.000000 0.000000 3.975627 -1.928513 0.209075 9.434306 6.120524 11.370811 3.624566 1.977268 4.392918 38.201583 -45.219401 -52.846632 -67.548133 -71.081956 -60.703941 0.000000 0.000000 0.000000 5.451168 -1.921191 1.123898 0.511857 1.563765 1.630041 1.424969 0.994018 -3.436403 -4.032324 18.490606 70.332008 1.211853 38.144622 2.234140 0.000000 0.000000 0.000000 
1.380022 32.852150 -1.290134 0.000000 0.000000 0.000000 -0.775318 -30.957177 -6.386753 -35.133516 41.729246 43.095427 35.053105 4.144193 -5.061849 -12.260523 6.473424 -10.641183 -3.607830 0.164611 -0.529223 0.000000 0.000000 0.000000 -0.224912 -30.925003 -7.041286 -8.881375 -9.373429 -3.718441 21.110252 5.851345 6.780946 -8.572725 6.176286 4.687415 -2.275218 0.495827 -2.519214 0.000000 0.000000 0.000000 -0.495654 -32.560277 -6.995373 10.072629 -3.701897 0.876978 4.474356 -2.424214 0.771447 1.215854 2.896506 -0.621886 0.000000 0.000000 0.000000 4.989789 -2.767031 0.864303 -2.817381 -0.958317 -1.803486 -9.901999 30.827403 -8.583670 0.000000 0.000000 0.000000 4.543020 -2.011720 -0.130137 10.787462 7.314951 13.936735 2.176801 -1.371198 4.143538 50.391022 -44.376374 -51.632129 -119.963489 -68.329807 -113.374255 0.000000 0.000000 0.000000 6.392161 -2.080085 0.711678 1.176778 2.200325 1.674864 2.328834 -0.825563 -4.305730 -4.450336 17.190358 67.870941 1.188079 48.952789 2.682397 0.000000 0.000000 0.000000 
1.503426 32.549747 -1.427187 0.000000 0.000000 0.000000 -0.939592 -35.560109 -6.124376 -35.730021 45.761403 44.731882 36.004932 3.840864 -4.868651 -18.222139 9.593134 -7.748530 -1.378353 0.037032 -0.888149 0.000000 0.000000 0.000000 -0.173150 -35.004030 -6.594967 -10.197720 -10.992553 -8.726514 25.831666 4.335317 4.927476 -10.271273 2.841532 2.671363 -1.614629 0.123953 -0.216260 0.000000 0.000000 0.000000 -0.208176 -35.712751 -6.885929 9.856067 -3.754666 0.457897 4.901655 -2.661363 0.492298 2.027169 4.265288 -0.323020 0.000000 0.000000 0.000000 5.018926 -2.868412 0.619583 -3.009115 -0.457169 -0.954868 -10.375332 32.304066 -8.212518 0.000000 0.000000 0.000000 4.913450 -1.971476 -0.263376 11.946663 8.887362 15.531596 0.635677 -4.589482 3.545621 56.824493 -43.754342 -53.936474 -137.644977 -60.556724 -131.059350 0.000000 0.000000 0.000000 6.924528 -2.101557 0.408769 1.809368 2.910962 1.733485 3.314247 -2.010314 -4.851939 -2.603761 15.137960 64.856546 0.520339 59.735878 3.441787 0.000000 0.000000 0.000000 
1.670080 32.170113 -1.729902 0.000000 0.000000 0.000000 -1.228562 -40.073662 -5.330766 -34.759772 47.682401 44.420695 37.132405 2.952011 -4.468053 -21.692616 11.587525 -6.270170 -1.337988 0.038382 -0.996003 0.000000 0.000000 0.000000 -0.389517 -38.800700 -5.589014 -12.051878 -13.046232 -15.198083 31.478098 3.251170 3.205190 -10.636350 -0.943019 1.781939 -1.883881 -0.568695 2.635768 0.000000 0.000000 0.000000 -0.265575 -38.471741 -6.392816 9.414388 -3.504462 -0.178178 5.098648 -2.679885 0.253499 2.520235 5.591228 -0.546083 0.000000 0.000000 0.000000 4.742160 -2.824239 0.355804 -2.924950 -0.412337 0.129687 -9.510105 33.438513 -7.958514 0.000000 0.000000 0.000000 5.082127 -1.831465 -0.298205 12.789936 10.426590 16.015274 -0.611559 -6.588421 2.528360 56.722242 -42.534959 -58.828549 -138.389905 -58.236768 -131.264324 0.000000 0.000000 0.000000 7.003511 -1.990806 0.155016 2.300286 3.589735 1.863008 4.244571 -2.605115 -4.941224 1.170094 13.733980 61.678070 -0.425737 67.581717 4.204741 0.000000 0.000000 0.000000 
